<svg width="14" height="14" viewBox="0 0 14 14" fill="none" xmlns="http://www.w3.org/2000/svg">
<mask id="mask0_0_1907" style="mask-type:luminance" maskUnits="userSpaceOnUse" x="0" y="0" width="14" height="14">
<path d="M14 6.11959e-07L14 14L-6.11959e-07 14L0 0L14 6.11959e-07Z" fill="white"/>
</mask>
<g mask="url(#mask0_0_1907)">
<path d="M1.23047 7.02086C1.46926 7.02086 1.70571 7.06789 1.92632 7.15927C2.14693 7.25065 2.34738 7.38458 2.51623 7.55343L5.03032 10.0675L10.4441 4.65374L6.57713 0.786759L2.51623 4.84763C2.34738 5.01649 2.14693 5.15043 1.92632 5.24182C1.70571 5.3332 1.46926 5.38024 1.23047 5.38023C0.777437 5.38023 0.410156 5.74749 0.410156 6.20055C0.410156 6.65358 0.777437 7.02086 1.23047 7.02086Z" stroke="#1C1C28" stroke-width="0.75" stroke-miterlimit="10" stroke-linecap="round" stroke-linejoin="round"/>
<path d="M7.1581 10.2609L10.6384 6.78058C11.1723 6.24664 11.1723 5.38099 10.6384 4.84708L10.445 4.65373L5.03125 10.0675L5.2246 10.2609C5.75851 10.7948 6.62419 10.7948 7.1581 10.2609Z" stroke="#1C1C28" stroke-width="0.75" stroke-miterlimit="10" stroke-linecap="round" stroke-linejoin="round"/>
<path d="M13.1519 12.7744C13.7749 12.1514 13.7285 11.128 13.0516 10.564L9.67163 7.74731L8.12482 9.29412L10.9415 12.6741C11.5055 13.3509 12.5289 13.3974 13.1519 12.7744Z" stroke="#1C1C28" stroke-width="0.75" stroke-miterlimit="10" stroke-linecap="round" stroke-linejoin="round"/>
<path d="M2.5166 7.55381L3.28999 8.3272C3.61035 8.64756 4.12975 8.64756 4.45008 8.3272C4.77044 8.00684 4.77044 7.48744 4.45008 7.16708L4.00711 6.72414C3.71784 6.43487 3.71784 5.96585 4.00711 5.67658L4.023 5.66072C4.31227 5.37142 4.78127 5.37142 5.07053 5.66072L5.22355 5.81371C5.49051 6.08069 5.92336 6.08066 6.19032 5.81368L6.19034 5.81368C6.45727 5.54672 6.45725 5.11392 6.19032 4.84697L6.03727 4.69395C5.74803 4.40471 5.74803 3.93576 6.03725 3.64649L6.05316 3.63058C6.34246 3.34128 6.81146 3.34128 7.10073 3.63055L7.54369 4.07352C7.86403 4.39388 8.38342 4.39388 8.70378 4.07352C9.02414 3.75316 9.02414 3.23377 8.70378 2.91341L7.73701 1.94667" stroke="#1C1C28" stroke-width="0.75" stroke-miterlimit="10" stroke-linecap="round" stroke-linejoin="round"/>
<path d="M11.8009 12.0051C11.6407 11.845 11.6407 11.5853 11.8009 11.4251C11.961 11.2649 12.2207 11.2649 12.3809 11.4251C12.5411 11.5853 12.5411 11.845 12.3809 12.0051C12.2207 12.1653 11.961 12.1653 11.8009 12.0051Z" fill="black"/>
</g>
</svg>
